HIERARCHY
ROOT Hips
{
  OFFSET 5.84602e-005 68.8428 3.50346
  CHANNELS 6 Xposition Yposition Zposition Zrotation Xrotation Yrotation
  JOINT Spine
  {
    OFFSET 0 8.597 -4.6522
    CHANNELS 3 Zrotation Xrotation Yrotation
    JOINT Spine1
    {
      OFFSET 0 7.8454 0.4098
      CHANNELS 3 Zrotation Xrotation Yrotation
      JOINT Spine2
      {
        OFFSET 0 9.7078 -2.1609
        CHANNELS 3 Zrotation Xrotation Yrotation
        JOINT Neck
        {
          OFFSET 0 21.8761 -0.4549
          CHANNELS 3 Zrotation Xrotation Yrotation
          JOINT Head
          {
            OFFSET 0 12.3537 3.3602
            CHANNELS 3 Zrotation Xrotation Yrotation
            End Site
            {
              OFFSET 0.0001 18.9506 0.5657
            }
          }
        }
        JOINT LeftShoulder
        {
          OFFSET 2.2086 21.1115 7.2329
          CHANNELS 3 Zrotation Xrotation Yrotation
          JOINT LeftArm
          {
            OFFSET 13.1193 3.0282 -4.8998
            CHANNELS 3 Zrotation Xrotation Yrotation
            JOINT LeftForeArm
            {
              OFFSET 27.4081 -0.0973053 -0.2375
              CHANNELS 3 Zrotation Xrotation Yrotation
              JOINT LeftHand
              {
                OFFSET 22.8641 0.0662994 -0.1369
                CHANNELS 3 Zrotation Xrotation Yrotation
                JOINT LeftHandIndex1
                {
                  OFFSET 8.8614 0.775009 2.4612
                  CHANNELS 3 Zrotation Xrotation Yrotation
                  JOINT LeftHandIndex2
                  {
                    OFFSET 3.3146 -0.808304 0.5841
                    CHANNELS 3 Zrotation Xrotation Yrotation
                    JOINT LeftHandIndex3
                    {
                      OFFSET 2.2628 -0.552002 0.3989
                      CHANNELS 3 Zrotation Xrotation Yrotation
                      End Site
                      {
                        OFFSET 1.6102 -0.4807 0.2612
                      }
                    }
                  }
                }
                JOINT LeftHandMiddle1
                {
                  OFFSET 8.9937 0.895004 0.2143
                  CHANNELS 3 Zrotation Xrotation Yrotation
                  JOINT LeftHandMiddle2
                  {
                    OFFSET 4.0984 0.0113983 -0.0242
                    CHANNELS 3 Zrotation Xrotation Yrotation
                    JOINT LeftHandMiddle3
                    {
                      OFFSET 2.2716 0.00689697 -0.0138001
                      CHANNELS 3 Zrotation Xrotation Yrotation
                      End Site
                      {
                        OFFSET 2.0404 -0.1441 0.0027
                      }
                    }
                  }
                }
                JOINT LeftHandRing1
                {
                  OFFSET 8.5234 0.597198 -2.0164
                  CHANNELS 3 Zrotation Xrotation Yrotation
                  JOINT LeftHandRing2
                  {
                    OFFSET 3.7188 -0.188293 -0.2328
                    CHANNELS 3 Zrotation Xrotation Yrotation
                    JOINT LeftHandRing3
                    {
                      OFFSET 2.1191 -0.106598 -0.1332
                      CHANNELS 3 Zrotation Xrotation Yrotation
                      End Site
                      {
                        OFFSET 1.8737 -0.2304 -0.0886
                      }
                    }
                  }
                }
                JOINT LeftHandPinky1
                {
                  OFFSET 7.9094 -0.601089 -3.4825
                  CHANNELS 3 Zrotation Xrotation Yrotation
                  JOINT LeftHandPinky2
                  {
                    OFFSET 2.2874 -0.477005 -0.6314
                    CHANNELS 3 Zrotation Xrotation Yrotation
                    JOINT LeftHandPinky3
                    {
                      OFFSET 1.6774 -0.349396 -0.4633
                      CHANNELS 3 Zrotation Xrotation Yrotation
                      End Site
                      {
                        OFFSET 1.4888 -0.4091 -0.3416
                      }
                    }
                  }
                }
                JOINT LeftHandThumb1
                {
                  OFFSET 1.833 -1.3875 1.3896
                  CHANNELS 3 Zrotation Xrotation Yrotation
                  JOINT LeftHandThumb2
                  {
                    OFFSET 3.4129 -1.121 2.5732
                    CHANNELS 3 Zrotation Xrotation Yrotation
                    JOINT LeftHandThumb3
                    {
                      OFFSET 2.2474 -0.804199 1.6192
                      CHANNELS 3 Zrotation Xrotation Yrotation
                      End Site
                      {
                        OFFSET 1.6527 -0.5689 1.1317
                      }
                    }
                  }
                }
              }
            }
          }
        }
        JOINT RightShoulder
        {
          OFFSET -2.2086 21.1115 7.2329
          CHANNELS 3 Zrotation Xrotation Yrotation
          JOINT RightArm
          {
            OFFSET -13.1216 3.0287 -4.9007
            CHANNELS 3 Zrotation Xrotation Yrotation
            JOINT RightForeArm
            {
              OFFSET -27.4081 -0.0973053 -0.2375
              CHANNELS 3 Zrotation Xrotation Yrotation
              JOINT RightHand
              {
                OFFSET -22.8641 0.0664063 -0.1369
                CHANNELS 3 Zrotation Xrotation Yrotation
                JOINT RightHandIndex1
                {
                  OFFSET -8.8614 0.774994 2.4612
                  CHANNELS 3 Zrotation Xrotation Yrotation
                  JOINT RightHandIndex2
                  {
                    OFFSET -3.3146 -0.808304 0.5841
                    CHANNELS 3 Zrotation Xrotation Yrotation
                    JOINT RightHandIndex3
                    {
                      OFFSET -2.2628 -0.552002 0.3989
                      CHANNELS 3 Zrotation Xrotation Yrotation
                      End Site
                      {
                        OFFSET -1.6102 -0.4807 0.2612
                      }
                    }
                  }
                }
                JOINT RightHandMiddle1
                {
                  OFFSET -8.9937 0.894989 0.2143
                  CHANNELS 3 Zrotation Xrotation Yrotation
                  JOINT RightHandMiddle2
                  {
                    OFFSET -4.0984 0.0113983 -0.0242
                    CHANNELS 3 Zrotation Xrotation Yrotation
                    JOINT RightHandMiddle3
                    {
                      OFFSET -2.2716 0.00691223 -0.0138001
                      CHANNELS 3 Zrotation Xrotation Yrotation
                      End Site
                      {
                        OFFSET -2.0404 -0.1441 0.0027
                      }
                    }
                  }
                }
                JOINT RightHandRing1
                {
                  OFFSET -8.5234 0.597198 -2.0164
                  CHANNELS 3 Zrotation Xrotation Yrotation
                  JOINT RightHandRing2
                  {
                    OFFSET -3.7188 -0.188309 -0.2328
                    CHANNELS 3 Zrotation Xrotation Yrotation
                    JOINT RightHandRing3
                    {
                      OFFSET -2.1191 -0.106598 -0.1332
                      CHANNELS 3 Zrotation Xrotation Yrotation
                      End Site
                      {
                        OFFSET -1.8737 -0.2304 -0.0886
                      }
                    }
                  }
                }
                JOINT RightHandPinky1
                {
                  OFFSET -7.9094 -0.601105 -3.4825
                  CHANNELS 3 Zrotation Xrotation Yrotation
                  JOINT RightHandPinky2
                  {
                    OFFSET -2.2874 -0.477005 -0.6314
                    CHANNELS 3 Zrotation Xrotation Yrotation
                    JOINT RightHandPinky3
                    {
                      OFFSET -1.6774 -0.349396 -0.4633
                      CHANNELS 3 Zrotation Xrotation Yrotation
                      End Site
                      {
                        OFFSET -1.4888 -0.4091 -0.3416
                      }
                    }
                  }
                }
                JOINT RightHandThumb1
                {
                  OFFSET -1.833 -1.38751 1.3896
                  CHANNELS 3 Zrotation Xrotation Yrotation
                  JOINT RightHandThumb2
                  {
                    OFFSET -3.41299 -1.12099 2.5732
                    CHANNELS 3 Zrotation Xrotation Yrotation
                    JOINT RightHandThumb3
                    {
                      OFFSET -2.24741 -0.804108 1.6192
                      CHANNELS 3 Zrotation Xrotation Yrotation
                      End Site
                      {
                        OFFSET -1.6527 -0.5689 1.1317
                      }
                    }
                  }
                }
              }
            }
          }
        }
      }
    }
  }
  JOINT RightUpLeg
  {
    OFFSET -9.1966 3.8861 -0.7581
    CHANNELS 3 Zrotation Xrotation Yrotation
    JOINT RightLeg
    {
      OFFSET -0.7359 -41.0265 0
      CHANNELS 3 Zrotation Xrotation Yrotation
      JOINT RightFoot
      {
        OFFSET 0 -40.2855 0
        CHANNELS 3 Zrotation Xrotation Yrotation
        JOINT RightToeBase
        {
          OFFSET 0 -5.6122 11.7359
          CHANNELS 3 Zrotation Xrotation Yrotation
          End Site
          {
            OFFSET 0 0 7.8731
          }
        }
      }
    }
  }
  JOINT LeftUpLeg
  {
    OFFSET 9.1965 3.8864 -0.7581
    CHANNELS 3 Zrotation Xrotation Yrotation
    JOINT LeftLeg
    {
      OFFSET 0.7359 -41.0268 0
      CHANNELS 3 Zrotation Xrotation Yrotation
      JOINT LeftFoot
      {
        OFFSET 0 -40.2855 0
        CHANNELS 3 Zrotation Xrotation Yrotation
        JOINT LeftToeBase
        {
          OFFSET 0 -5.6122 11.7359
          CHANNELS 3 Zrotation Xrotation Yrotation
          End Site
          {
            OFFSET 0 0 7.8731
          }
        }
      }
    }
  }
}
MOTION
Frames:	4
Frame Time:	0.0333333
5.84602e-005 68.8428 3.50346 0 0 -0 0 0 -0 0 0 -0 0 0 -0 0 0 -0 0 0 -0 0 0 -0 0 0 -0 0 0 -0 0 0 -0 0 0 -0 0 0 -0 0 0 -0 0 0 -0 -0.0146107 -8.87603e-005 -2.63497e-007 2.99804e-018 -2.42657e-020 -1.42182e-022 0 0 -0 -0.0187562 -0.001176 5.858e-005 5.06224e-018 3.88251e-019 1.21329e-020 0 0 -0 -0.012269 -0.00324817 0.000675346 -1.74678e-018 3.88251e-019 -0 0 0 -0 0 0 -0 0 0 -0 0 0 -0 0 0 -0 0 0 -0 0 0 -0 0 0 -0 0 0 -0 0 0 -0 0 0 -0 0.0149955 -9.10982e-005 2.64101e-007 -9.69331e-018 1.21329e-020 -4.7394e-023 0 0 -0 0.0189956 -0.00119102 -5.96516e-005 -5.41541e-019 0 2.42657e-020 0 0 -0 0.0122698 -0.00324857 -0.000673756 -2.00796e-019 0 -1.94126e-019 0 0 -0 0 0 -0 0 0 -0 3.39842 1.33031 -0.0637918 -5.65207e-008 0.834868 -0.000436188 -3.39935 -2.16518 -0.0642563 -8.89002e-024 -1.18485e-023 -1.48106e-024 -3.39844 1.35642 0.0640283 -3.18788e-007 0.782166 -0.000588827 3.39931 -2.13858 0.0634662 1.1399e-023 0 -0 
-21.391 23.9729 5.4588 36.2124 29.1341 123.62 -0.472447 1.51483 0.0147266 -0.945765 3.02948 0.0419699 -0.945755 3.02948 0.0419973 6.66878e-005 11.9268 -6.94523e-005 -3.18319e-007 8.2127 -3.86318e-006 -9.35477 17.4338 -14.44 -32.2207 -6.1111 31.5127 2.55726 -10.545 -58.8581 -12.0693 0.11267 -3.82739 3.18055e-015 -7.15625e-015 -2.38542e-015 -1.92832e-006 -2.4359e-006 4.72458e-007 -3.18055e-015 -7.7526e-015 2.38542e-015 3.18055e-015 -7.15625e-015 -2.38542e-015 -0.0145989 -8.70234e-005 -2.68566e-006 6.36111e-015 4.96962e-015 -7.95139e-016 3.18055e-015 -7.15625e-015 -2.38542e-015 -0.0187593 -0.00118288 6.05929e-005 -3.18055e-015 -3.97569e-016 7.95139e-016 3.18055e-015 -7.15625e-015 -2.38542e-015 -0.0121832 -0.00322574 0.000671414 3.18055e-015 -2.78299e-015 -0 3.18055e-015 -7.15625e-015 -2.38542e-015 -1.92832e-006 -2.4359e-006 4.72458e-007 -3.18055e-015 -7.7526e-015 2.38542e-015 9.3589 17.4332 14.4354 32.2148 -6.10894 -31.5132 -2.55974 -10.5461 58.8545 12.0681 0.112604 3.825 2.0077e-007 3.14165e-006 -4.78231e-007 -1.87944e-006 -1.91728e-008 -1.68175e-007 2.0077e-007 3.14165e-006 -4.7823e-007 2.0077e-007 3.14165e-006 -4.78231e-007 0.0150205 -9.1597e-005 1.08941e-006 2.00931e-007 3.14158e-006 -4.78642e-007 2.0077e-007 3.14165e-006 -4.78231e-007 0.0189981 -0.00119318 -6.00179e-005 2.00968e-007 3.14155e-006 -4.78754e-007 2.0077e-007 3.14165e-006 -4.78231e-007 0.012247 -0.00324272 -0.000672348 2.0087e-007 3.14156e-006 -4.78579e-007 2.0077e-007 3.14165e-006 -4.78231e-007 -1.87944e-006 -1.91728e-008 -1.68175e-007 2.0077e-007 3.14165e-006 -4.7823e-007 -30.6933 -18.4158 -59.5925 -52.289 62.3598 95.0539 1.62814 12.7015 -28.6288 2.4182e-007 -3.4627e-007 5.846e-008 29.8113 -19.5212 60.756 55.8693 63.1813 -100.373 -1.49044 12.0372 31.3931 3.18055e-015 0 6.36111e-015 
-40.1515 4.52556 7.6872 -26.865 62.3242 -150.23 -0.695581 2.25401 -0.0108143 -1.39235 4.50797 0.00578494 -1.39235 4.50798 0.00578804 3.69719e-005 16.9117 5.09539e-006 -1.0424e-008 11.5873 -1.41701e-006 -10.3392 24.2847 -22.236 -44.7641 -7.30625 45.916 -0.387386 -3.32061 -83.9178 -17.3328 0.0251336 -5.64981 -7.95139e-016 1.73937e-015 -3.18055e-015 -7.95139e-016 1.68967e-015 -1.59028e-015 -7.95139e-016 -1.54058e-015 -0 -7.95139e-016 1.73937e-015 -3.18055e-015 -0.0146361 -8.85526e-005 3.67181e-006 -7.95139e-016 -3.23025e-015 -1.59028e-015 -7.95139e-016 1.73937e-015 -3.18055e-015 -0.0187991 -0.00117963 5.39141e-005 -9.93923e-016 -8.19987e-015 1.59028e-015 -7.95139e-016 1.73937e-015 -3.18055e-015 -0.012207 -0.00322877 0.000673734 -3.37934e-015 3.97569e-015 1.59028e-015 -7.95139e-016 1.73937e-015 -3.18055e-015 -7.95139e-016 1.68967e-015 -1.59028e-015 -7.95139e-016 -1.54058e-015 -0 10.3121 24.2821 22.2412 44.7694 -7.31225 -45.9283 0.384443 -3.32318 83.913 17.324 0.022921 5.64547 -6.48654e-007 -3.32309e-006 -3.58352e-007 -3.66134e-006 -5.57826e-006 -1.68643e-006 -6.48654e-007 -3.32308e-006 -3.58352e-007 -6.48654e-007 -3.32309e-006 -3.58352e-007 0.0149891 -9.33837e-005 -4.22449e-006 -6.50281e-007 -3.32312e-006 -3.57916e-007 -6.48654e-007 -3.32309e-006 -3.58352e-007 0.0189953 -0.00118973 -5.6235e-005 -1.16511e-006 -9.76678e-007 6.66194e-007 -6.48654e-007 -3.32309e-006 -3.58352e-007 0.012282 -0.00325256 -0.00067148 -1.16506e-006 -9.76716e-007 6.6616e-007 -6.48654e-007 -3.32309e-006 -3.58352e-007 -3.66134e-006 -5.57826e-006 -1.68643e-006 -6.48654e-007 -3.32308e-006 -3.58352e-007 -52.0572 -11.7248 -82.794 -84.6554 34.4915 130.429 10.0097 15.0546 -44.8938 3.18055e-015 1.59028e-015 -1.59028e-014 51.0539 -11.7731 83.7168 85.7314 33.1133 -134.084 -9.83021 13.6335 48.8609 -9.02641e-007 -1.23605e-007 -1.56258e-006 
-35.7853 8.82132 6.48038 5.6401e-015 60.9968 180 -0.641952 2.21464 -0.00612885 -1.28511 4.42918 0.0126094 -1.28511 4.42919 0.0126097 -5.09454e-005 14.9539 2.82886e-005 1.27616e-007 10.1237 2.7939e-007 -9.9799 22.639 -20.9227 -42.1932 -7.26178 42.7973 0.0369411 -5.65448 -78.6591 -15.8003 -0.262111 -5.46697 0 7.25564e-015 -0 1.59028e-015 7.55382e-015 -0 1.59028e-015 4.27387e-015 3.18055e-015 0 7.25564e-015 -0 -0.014644 -8.97304e-005 1.46862e-006 7.95139e-016 3.18055e-015 -0 0 7.25564e-015 -0 -0.0186851 -0.00116873 6.068e-005 -6.06912e-032 2.18663e-015 1.59028e-015 0 7.25564e-015 -0 -0.012308 -0.00325387 0.000679678 7.95139e-016 -1.00386e-014 1.59028e-015 0 7.25564e-015 -0 1.59028e-015 7.55382e-015 -0 1.59028e-015 4.27387e-015 3.18055e-015 9.88475 22.632 20.9523 42.2271 -7.28727 -42.8328 -0.0398846 -5.6567 78.6545 15.7773 -0.26862 5.4612 -9.93923e-017 1.02498e-014 -9.54166e-015 -5.96354e-016 6.89534e-015 -1.43125e-014 4.96962e-017 1.00262e-014 -1.11319e-014 -9.93923e-017 1.02498e-014 -9.54166e-015 0.0149979 -9.1599e-005 -7.08779e-007 -2.38542e-015 -2.60905e-016 -0 -9.93923e-017 1.02498e-014 -9.54166e-015 0.0189938 -0.00118935 -5.50854e-005 1.39149e-015 4.5969e-016 -1.59028e-015 -9.93923e-017 1.02498e-014 -9.54166e-015 0.0122794 -0.00324649 -0.00068419 -1.19271e-015 -1.19271e-015 1.59028e-015 -9.93923e-017 1.02498e-014 -9.54166e-015 -5.96354e-016 6.89534e-015 -1.43125e-014 4.96962e-017 1.00262e-014 -1.11319e-014 -46.8901 -14.6166 -76.5651 -81.3524 42.0313 125.805 8.48855 14.4983 -40.4718 -7.95139e-016 1.59028e-015 -6.36111e-015 45.9911 -14.9472 77.6046 82.9897 41.0594 -129.634 -8.28264 13.2876 43.9455 3.04128e-006 1.78468e-007 -2.79017e-006 
